# Blender 4.5.12 LTS
# www.blender.org
mtllib TV_Console.mtl
o TV_Entertainment_Console
v -0.700000 0.100000 0.225000
v -0.700000 0.600000 0.225000
v -0.700000 0.100000 -0.225000
v -0.700000 0.600000 -0.225000
v 0.700000 0.100000 0.225000
v 0.700000 0.600000 0.225000
v 0.700000 0.100000 -0.225000
v 0.700000 0.600000 -0.225000
v -0.730000 0.600000 0.245000
v -0.730000 0.650000 0.245000
v -0.730000 0.600000 -0.245000
v -0.730000 0.650000 -0.245000
v 0.730000 0.600000 0.245000
v 0.730000 0.650000 0.245000
v 0.730000 0.600000 -0.245000
v 0.730000 0.650000 -0.245000
v -0.730000 0.010000 0.245000
v -0.730000 0.090000 0.245000
v -0.730000 0.010000 -0.245000
v -0.730000 0.090000 -0.245000
v 0.730000 0.010000 0.245000
v 0.730000 0.090000 0.245000
v 0.730000 0.010000 -0.245000
v 0.730000 0.090000 -0.245000
v -0.630000 0.140000 0.245000
v -0.630000 0.560000 0.245000
v -0.630000 0.140000 0.215000
v -0.630000 0.560000 0.215000
v -0.030000 0.140000 0.245000
v -0.030000 0.560000 0.245000
v -0.030000 0.140000 0.215000
v -0.030000 0.560000 0.215000
v -0.090000 0.359567 0.231903
v -0.090000 0.326903 0.245433
v -0.085216 0.373097 0.246715
v -0.081161 0.367678 0.239691
v -0.078452 0.359567 0.234997
v -0.077500 0.350000 0.233349
v -0.078452 0.340433 0.234997
v -0.081161 0.332322 0.239691
v -0.085216 0.326903 0.246715
v -0.090000 0.375000 0.255000
v -0.081715 0.373097 0.250216
v -0.074691 0.367678 0.246161
v -0.069997 0.359567 0.243452
v -0.068349 0.350000 0.242500
v -0.069997 0.340433 0.243452
v -0.074691 0.332322 0.246161
v -0.081715 0.326903 0.250216
v -0.080433 0.373097 0.255000
v -0.072322 0.367678 0.255000
v -0.066903 0.359567 0.255000
v -0.065000 0.350000 0.255000
v -0.066903 0.340433 0.255000
v -0.072322 0.332322 0.255000
v -0.080433 0.326903 0.255000
v -0.081715 0.373097 0.259784
v -0.074691 0.367678 0.263839
v -0.069997 0.359567 0.266548
v -0.068349 0.350000 0.267500
v -0.069997 0.340433 0.266548
v -0.074691 0.332322 0.263839
v -0.081715 0.326903 0.259784
v -0.085216 0.373097 0.263285
v -0.081161 0.367678 0.270309
v -0.078452 0.359567 0.275003
v -0.077500 0.350000 0.276651
v -0.078452 0.340433 0.275003
v -0.081161 0.332322 0.270309
v -0.085216 0.326903 0.263285
v -0.090000 0.373097 0.264567
v -0.090000 0.367678 0.272678
v -0.090000 0.359567 0.278097
v -0.090000 0.350000 0.280000
v -0.090000 0.340433 0.278097
v -0.090000 0.332322 0.272678
v -0.090000 0.326903 0.264567
v -0.094784 0.373097 0.263285
v -0.098839 0.367678 0.270309
v -0.101549 0.359567 0.275003
v -0.102500 0.350000 0.276651
v -0.101549 0.340433 0.275003
v -0.098839 0.332322 0.270309
v -0.094784 0.326903 0.263285
v -0.090000 0.325000 0.255000
v -0.098285 0.373097 0.259784
v -0.105309 0.367678 0.263839
v -0.110003 0.359567 0.266548
v -0.111651 0.350000 0.267500
v -0.110003 0.340433 0.266548
v -0.105309 0.332322 0.263839
v -0.098285 0.326903 0.259784
v -0.099567 0.373097 0.255000
v -0.107678 0.367678 0.255000
v -0.113097 0.359567 0.255000
v -0.115000 0.350000 0.255000
v -0.113097 0.340433 0.255000
v -0.107678 0.332322 0.255000
v -0.099567 0.326903 0.255000
v -0.098285 0.373097 0.250216
v -0.105309 0.367678 0.246161
v -0.110003 0.359567 0.243452
v -0.111651 0.350000 0.242500
v -0.110003 0.340433 0.243452
v -0.105309 0.332322 0.246161
v -0.098285 0.326903 0.250216
v -0.094784 0.373097 0.246715
v -0.098839 0.367678 0.239691
v -0.101548 0.359567 0.234997
v -0.102500 0.350000 0.233349
v -0.101548 0.340433 0.234997
v -0.098839 0.332322 0.239691
v -0.094784 0.326903 0.246715
v -0.090000 0.373097 0.245433
v -0.090000 0.367678 0.237322
v -0.090000 0.350000 0.230000
v -0.090000 0.340433 0.231903
v -0.090000 0.332322 0.237322
v 0.030000 0.140000 0.245000
v 0.030000 0.560000 0.245000
v 0.030000 0.140000 0.215000
v 0.030000 0.560000 0.215000
v 0.630000 0.140000 0.245000
v 0.630000 0.560000 0.245000
v 0.630000 0.140000 0.215000
v 0.630000 0.560000 0.215000
v 0.090000 0.359567 0.231903
v 0.090000 0.326903 0.245433
v 0.094784 0.373097 0.246715
v 0.098839 0.367678 0.239691
v 0.101549 0.359567 0.234997
v 0.102500 0.350000 0.233349
v 0.101549 0.340433 0.234997
v 0.098839 0.332322 0.239691
v 0.094784 0.326903 0.246715
v 0.090000 0.375000 0.255000
v 0.098285 0.373097 0.250216
v 0.105309 0.367678 0.246161
v 0.110003 0.359567 0.243452
v 0.111651 0.350000 0.242500
v 0.110003 0.340433 0.243452
v 0.105309 0.332322 0.246161
v 0.098285 0.326903 0.250216
v 0.099567 0.373097 0.255000
v 0.107678 0.367678 0.255000
v 0.113097 0.359567 0.255000
v 0.115000 0.350000 0.255000
v 0.113097 0.340433 0.255000
v 0.107678 0.332322 0.255000
v 0.099567 0.326903 0.255000
v 0.098285 0.373097 0.259784
v 0.105309 0.367678 0.263839
v 0.110003 0.359567 0.266548
v 0.111651 0.350000 0.267500
v 0.110003 0.340433 0.266548
v 0.105309 0.332322 0.263839
v 0.098285 0.326903 0.259784
v 0.094784 0.373097 0.263285
v 0.098839 0.367678 0.270309
v 0.101548 0.359567 0.275003
v 0.102500 0.350000 0.276651
v 0.101548 0.340433 0.275003
v 0.098839 0.332322 0.270309
v 0.094784 0.326903 0.263285
v 0.090000 0.373097 0.264567
v 0.090000 0.367678 0.272678
v 0.090000 0.359567 0.278097
v 0.090000 0.350000 0.280000
v 0.090000 0.340433 0.278097
v 0.090000 0.332322 0.272678
v 0.090000 0.326903 0.264567
v 0.085216 0.373097 0.263285
v 0.081161 0.367678 0.270309
v 0.078452 0.359567 0.275003
v 0.077500 0.350000 0.276651
v 0.078452 0.340433 0.275003
v 0.081161 0.332322 0.270309
v 0.085216 0.326903 0.263285
v 0.090000 0.325000 0.255000
v 0.081715 0.373097 0.259784
v 0.074691 0.367678 0.263839
v 0.069997 0.359567 0.266548
v 0.068349 0.350000 0.267500
v 0.069997 0.340433 0.266548
v 0.074691 0.332322 0.263839
v 0.081715 0.326903 0.259784
v 0.080433 0.373097 0.255000
v 0.072322 0.367678 0.255000
v 0.066903 0.359567 0.255000
v 0.065000 0.350000 0.255000
v 0.066903 0.340433 0.255000
v 0.072322 0.332322 0.255000
v 0.080433 0.326903 0.255000
v 0.081715 0.373097 0.250216
v 0.074691 0.367678 0.246161
v 0.069997 0.359567 0.243452
v 0.068349 0.350000 0.242500
v 0.069997 0.340433 0.243452
v 0.074691 0.332322 0.246161
v 0.081715 0.326903 0.250216
v 0.085216 0.373097 0.246715
v 0.081161 0.367678 0.239691
v 0.078452 0.359567 0.234997
v 0.077500 0.350000 0.233349
v 0.078452 0.340433 0.234997
v 0.081161 0.332322 0.239691
v 0.085216 0.326903 0.246715
v 0.090000 0.373097 0.245433
v 0.090000 0.367678 0.237322
v 0.090000 0.350000 0.230000
v 0.090000 0.340433 0.231903
v 0.090000 0.332322 0.237322
v -0.575000 0.650000 -0.030000
v -0.575000 1.650000 -0.030000
v -0.575000 0.650000 -0.210000
v -0.575000 1.650000 -0.210000
v 0.575000 0.650000 -0.030000
v 0.575000 1.650000 -0.030000
v 0.575000 0.650000 -0.210000
v 0.575000 1.650000 -0.210000
v -0.625000 1.640000 0.060000
v -0.625000 1.720000 0.060000
v -0.625000 1.640000 -0.220000
v -0.625000 1.720000 -0.220000
v 0.625000 1.640000 0.060000
v 0.625000 1.720000 0.060000
v 0.625000 1.640000 -0.220000
v 0.625000 1.720000 -0.220000
v -0.635000 1.685000 0.070000
v -0.635000 1.735000 0.070000
v -0.635000 1.685000 0.030000
v -0.635000 1.735000 0.030000
v 0.635000 1.685000 0.070000
v 0.635000 1.735000 0.070000
v 0.635000 1.685000 0.030000
v 0.635000 1.735000 0.030000
v -0.210000 0.650000 0.110000
v -0.210000 0.670000 0.110000
v -0.210000 0.650000 -0.110000
v -0.210000 0.670000 -0.110000
v 0.210000 0.650000 0.110000
v 0.210000 0.670000 0.110000
v 0.210000 0.650000 -0.110000
v 0.210000 0.670000 -0.110000
v -0.050000 0.670000 0.010000
v -0.050000 0.770000 0.010000
v -0.050000 0.670000 -0.070000
v -0.050000 0.770000 -0.070000
v 0.050000 0.670000 0.010000
v 0.050000 0.770000 0.010000
v 0.050000 0.670000 -0.070000
v 0.050000 0.770000 -0.070000
v -0.450000 0.825000 0.000000
v -0.450000 1.375000 0.000000
v -0.450000 0.825000 -0.040000
v -0.450000 1.375000 -0.040000
v 0.450000 0.825000 0.000000
v 0.450000 1.375000 0.000000
v 0.450000 0.825000 -0.040000
v 0.450000 1.375000 -0.040000
v -0.425000 0.850000 0.010000
v -0.425000 1.350000 0.010000
v -0.425000 0.850000 0.000000
v -0.425000 1.350000 0.000000
v 0.425000 0.850000 0.010000
v 0.425000 1.350000 0.010000
v 0.425000 0.850000 0.000000
v 0.425000 1.350000 0.000000
vn -1.0000 -0.0000 -0.0000
vn -0.0000 -0.0000 -1.0000
vn 1.0000 -0.0000 -0.0000
vn -0.0000 -0.0000 1.0000
vn -0.0000 -1.0000 -0.0000
vn -0.0000 1.0000 -0.0000
vn 0.2175 0.5423 -0.8116
vn 0.0522 0.9794 -0.1948
vn 0.0522 -0.9794 -0.1948
vn 0.2175 -0.5423 -0.8116
vn 0.2542 0.1887 -0.9486
vn 0.1472 0.8224 -0.5495
vn 0.1472 -0.8224 -0.5495
vn 0.2542 -0.1887 -0.9486
vn 0.5941 -0.5423 -0.5941
vn 0.6944 0.1887 -0.6944
vn 0.4023 0.8224 -0.4023
vn 0.4023 -0.8224 -0.4023
vn 0.6944 -0.1887 -0.6944
vn 0.5941 0.5423 -0.5941
vn 0.1426 0.9794 -0.1426
vn 0.1426 -0.9794 -0.1426
vn 0.5495 -0.8224 -0.1472
vn 0.9486 -0.1887 -0.2542
vn 0.8116 0.5423 -0.2175
vn 0.1948 0.9794 -0.0522
vn 0.1948 -0.9794 -0.0522
vn 0.8116 -0.5423 -0.2175
vn 0.9486 0.1887 -0.2542
vn 0.5495 0.8224 -0.1472
vn 0.9486 -0.1887 0.2542
vn 0.8116 0.5423 0.2175
vn 0.1948 0.9794 0.0522
vn 0.1948 -0.9794 0.0522
vn 0.8116 -0.5423 0.2175
vn 0.9486 0.1887 0.2542
vn 0.5495 0.8224 0.1472
vn 0.5495 -0.8224 0.1472
vn 0.1426 -0.9794 0.1426
vn 0.5941 -0.5423 0.5941
vn 0.6944 0.1887 0.6944
vn 0.4023 0.8224 0.4023
vn 0.4023 -0.8224 0.4023
vn 0.6944 -0.1887 0.6944
vn 0.5941 0.5423 0.5941
vn 0.1426 0.9794 0.1426
vn 0.2542 0.1887 0.9486
vn 0.1472 0.8224 0.5495
vn 0.1472 -0.8224 0.5495
vn 0.2542 -0.1887 0.9486
vn 0.2175 0.5423 0.8116
vn 0.0522 0.9794 0.1948
vn 0.0522 -0.9794 0.1948
vn 0.2175 -0.5423 0.8116
vn -0.1472 -0.8224 0.5495
vn -0.2542 -0.1887 0.9486
vn -0.2175 0.5423 0.8116
vn -0.0522 0.9794 0.1948
vn -0.0522 -0.9794 0.1948
vn -0.2175 -0.5423 0.8116
vn -0.2542 0.1887 0.9486
vn -0.1472 0.8224 0.5495
vn -0.5941 0.5423 0.5941
vn -0.1426 0.9794 0.1426
vn -0.1426 -0.9794 0.1426
vn -0.5941 -0.5423 0.5941
vn -0.6944 0.1887 0.6944
vn -0.4023 0.8224 0.4023
vn -0.4023 -0.8224 0.4023
vn -0.6944 -0.1887 0.6944
vn -0.1948 -0.9794 0.0522
vn -0.8116 -0.5423 0.2175
vn -0.9486 0.1887 0.2542
vn -0.5495 0.8224 0.1472
vn -0.5495 -0.8224 0.1472
vn -0.9486 -0.1887 0.2542
vn -0.8116 0.5423 0.2175
vn -0.1948 0.9794 0.0522
vn -0.5495 0.8224 -0.1472
vn -0.5495 -0.8224 -0.1472
vn -0.9486 -0.1887 -0.2542
vn -0.8116 0.5423 -0.2175
vn -0.1948 0.9794 -0.0522
vn -0.1948 -0.9794 -0.0522
vn -0.8116 -0.5423 -0.2175
vn -0.9486 0.1887 -0.2542
vn -0.4023 -0.8224 -0.4023
vn -0.6944 -0.1887 -0.6944
vn -0.5941 0.5423 -0.5941
vn -0.1426 0.9794 -0.1426
vn -0.1426 -0.9794 -0.1426
vn -0.5941 -0.5423 -0.5941
vn -0.6944 0.1887 -0.6944
vn -0.4023 0.8224 -0.4023
vn -0.0522 0.9794 -0.1948
vn -0.0522 -0.9794 -0.1948
vn -0.2175 -0.5423 -0.8116
vn -0.2542 0.1887 -0.9486
vn -0.1472 0.8224 -0.5495
vn -0.1472 -0.8224 -0.5495
vn -0.2542 -0.1887 -0.9486
vn -0.2175 0.5423 -0.8116
vt 0.375000 0.000000
vt 0.625000 0.000000
vt 0.625000 0.250000
vt 0.375000 0.250000
vt 0.625000 0.500000
vt 0.375000 0.500000
vt 0.625000 0.750000
vt 0.375000 0.750000
vt 0.625000 1.000000
vt 0.375000 1.000000
vt 0.125000 0.500000
vt 0.125000 0.750000
vt 0.875000 0.500000
vt 0.875000 0.750000
vt 0.750000 0.625000
vt 0.750000 0.750000
vt 0.666667 0.750000
vt 0.666667 0.625000
vt 0.750000 0.875000
vt 0.708333 1.000000
vt 0.666667 0.875000
vt 0.708333 0.000000
vt 0.750000 0.125000
vt 0.666667 0.125000
vt 0.750000 0.250000
vt 0.750000 0.375000
vt 0.666667 0.375000
vt 0.666667 0.250000
vt 0.750000 0.500000
vt 0.666667 0.500000
vt 0.583333 0.375000
vt 0.583333 0.250000
vt 0.583333 0.625000
vt 0.583333 0.500000
vt 0.583333 0.875000
vt 0.583333 0.750000
vt 0.583333 0.125000
vt 0.625000 0.000000
vt 0.500000 0.250000
vt 0.500000 0.125000
vt 0.500000 0.500000
vt 0.500000 0.375000
vt 0.500000 0.750000
vt 0.500000 0.625000
vt 0.541667 1.000000
vt 0.500000 0.875000
vt 0.541667 0.000000
vt 0.416667 0.500000
vt 0.416667 0.375000
vt 0.416667 0.750000
vt 0.416667 0.625000
vt 0.458333 1.000000
vt 0.416667 0.875000
vt 0.458333 0.000000
vt 0.416667 0.125000
vt 0.416667 0.250000
vt 0.375000 0.000000
vt 0.333333 0.125000
vt 0.333333 0.375000
vt 0.333333 0.250000
vt 0.333333 0.625000
vt 0.333333 0.500000
vt 0.333333 0.875000
vt 0.333333 0.750000
vt 0.250000 0.625000
vt 0.250000 0.500000
vt 0.250000 0.875000
vt 0.250000 0.750000
vt 0.250000 0.250000
vt 0.250000 0.125000
vt 0.250000 0.375000
vt 0.291667 1.000000
vt 0.291667 0.000000
vt 0.166667 0.250000
vt 0.166667 0.125000
vt 0.166667 0.500000
vt 0.166667 0.375000
vt 0.166667 0.750000
vt 0.166667 0.625000
vt 0.208333 1.000000
vt 0.166667 0.875000
vt 0.208333 0.000000
vt 0.083333 0.750000
vt 0.083333 0.625000
vt 0.125000 1.000000
vt 0.083333 0.875000
vt 0.125000 0.000000
vt 0.083333 0.125000
vt 0.083333 0.375000
vt 0.083333 0.250000
vt 0.083333 0.500000
vt 0.041667 0.000000
vt 0.000000 0.125000
vt 0.000000 0.375000
vt 0.000000 0.250000
vt 0.000000 0.625000
vt 0.000000 0.500000
vt 0.000000 0.875000
vt 0.000000 0.750000
vt 0.041667 1.000000
vt 1.000000 0.750000
vt 1.000000 0.875000
vt 0.916667 0.875000
vt 0.916667 0.750000
vt 1.000000 0.125000
vt 1.000000 0.250000
vt 0.916667 0.250000
vt 0.916667 0.125000
vt 1.000000 0.375000
vt 1.000000 0.500000
vt 0.916667 0.500000
vt 0.916667 0.375000
vt 1.000000 0.625000
vt 0.916667 0.625000
vt 0.958333 1.000000
vt 0.958333 0.000000
vt 0.833333 0.250000
vt 0.833333 0.125000
vt 0.833333 0.500000
vt 0.833333 0.375000
vt 0.833333 0.750000
vt 0.833333 0.625000
vt 0.875000 1.000000
vt 0.833333 0.875000
vt 0.875000 0.000000
vt 0.791667 1.000000
vt 0.791667 0.000000
s 0
usemtl Mat_Wood_Main
f 1/1/1 2/2/1 4/3/1 3/4/1
f 3/4/2 4/3/2 8/5/2 7/6/2
f 7/6/3 8/5/3 6/7/3 5/8/3
f 5/8/4 6/7/4 2/9/4 1/10/4
f 3/11/5 7/6/5 5/8/5 1/12/5
f 8/5/6 4/13/6 2/14/6 6/7/6
f 25/1/1 26/2/1 28/3/1 27/4/1
f 27/4/2 28/3/2 32/5/2 31/6/2
f 31/6/3 32/5/3 30/7/3 29/8/3
f 29/8/4 30/7/4 26/9/4 25/10/4
f 27/11/5 31/6/5 29/8/5 25/12/5
f 32/5/6 28/13/6 26/14/6 30/7/6
f 119/1/1 120/2/1 122/3/1 121/4/1
f 121/4/2 122/3/2 126/5/2 125/6/2
f 125/6/3 126/5/3 124/7/3 123/8/3
f 123/8/4 124/7/4 120/9/4 119/10/4
f 121/11/5 125/6/5 123/8/5 119/12/5
f 126/5/6 122/13/6 120/14/6 124/7/6
f 213/1/1 214/2/1 216/3/1 215/4/1
f 215/4/2 216/3/2 220/5/2 219/6/2
f 219/6/3 220/5/3 218/7/3 217/8/3
f 217/8/4 218/7/4 214/9/4 213/10/4
f 215/11/5 219/6/5 217/8/5 213/12/5
f 220/5/6 216/13/6 214/14/6 218/7/6
usemtl Mat_Wood_Trim
f 9/1/1 10/2/1 12/3/1 11/4/1
f 11/4/2 12/3/2 16/5/2 15/6/2
f 15/6/3 16/5/3 14/7/3 13/8/3
f 13/8/4 14/7/4 10/9/4 9/10/4
f 11/11/5 15/6/5 13/8/5 9/12/5
f 16/5/6 12/13/6 10/14/6 14/7/6
f 17/1/1 18/2/1 20/3/1 19/4/1
f 19/4/2 20/3/2 24/5/2 23/6/2
f 23/6/3 24/5/3 22/7/3 21/8/3
f 21/8/4 22/7/4 18/9/4 17/10/4
f 19/11/5 23/6/5 21/8/5 17/12/5
f 24/5/6 20/13/6 18/14/6 22/7/6
f 33/15/7 115/16/7 36/17/7 37/18/7
f 114/19/8 42/20/8 35/21/8
f 85/22/9 34/23/9 41/24/9
f 118/25/10 117/26/10 39/27/10 40/28/10
f 116/29/11 33/15/11 37/18/11 38/30/11
f 115/16/12 114/19/12 35/21/12 36/17/12
f 34/23/13 118/25/13 40/28/13 41/24/13
f 117/26/14 116/29/14 38/30/14 39/27/14
f 40/28/15 39/27/15 47/31/15 48/32/15
f 38/30/16 37/18/16 45/33/16 46/34/16
f 36/17/17 35/21/17 43/35/17 44/36/17
f 41/24/18 40/28/18 48/32/18 49/37/18
f 39/27/19 38/30/19 46/34/19 47/31/19
f 37/18/20 36/17/20 44/36/20 45/33/20
f 35/21/21 42/9/21 43/35/21
f 85/38/22 41/24/22 49/37/22
f 49/37/23 48/32/23 55/39/23 56/40/23
f 47/31/24 46/34/24 53/41/24 54/42/24
f 45/33/25 44/36/25 51/43/25 52/44/25
f 43/35/26 42/45/26 50/46/26
f 85/47/27 49/37/27 56/40/27
f 48/32/28 47/31/28 54/42/28 55/39/28
f 46/34/29 45/33/29 52/44/29 53/41/29
f 44/36/30 43/35/30 50/46/30 51/43/30
f 54/42/31 53/41/31 60/48/31 61/49/31
f 52/44/32 51/43/32 58/50/32 59/51/32
f 50/46/33 42/52/33 57/53/33
f 85/54/34 56/40/34 63/55/34
f 55/39/35 54/42/35 61/49/35 62/56/35
f 53/41/36 52/44/36 59/51/36 60/48/36
f 51/43/37 50/46/37 57/53/37 58/50/37
f 56/40/38 55/39/38 62/56/38 63/55/38
f 85/57/39 63/55/39 70/58/39
f 62/56/40 61/49/40 68/59/40 69/60/40
f 60/48/41 59/51/41 66/61/41 67/62/41
f 58/50/42 57/53/42 64/63/42 65/64/42
f 63/55/43 62/56/43 69/60/43 70/58/43
f 61/49/44 60/48/44 67/62/44 68/59/44
f 59/51/45 58/50/45 65/64/45 66/61/45
f 57/53/46 42/10/46 64/63/46
f 67/62/47 66/61/47 73/65/47 74/66/47
f 65/64/48 64/63/48 71/67/48 72/68/48
f 70/58/49 69/60/49 76/69/49 77/70/49
f 68/59/50 67/62/50 74/66/50 75/71/50
f 66/61/51 65/64/51 72/68/51 73/65/51
f 64/63/52 42/72/52 71/67/52
f 85/73/53 70/58/53 77/70/53
f 69/60/54 68/59/54 75/71/54 76/69/54
f 77/70/55 76/69/55 83/74/55 84/75/55
f 75/71/56 74/66/56 81/76/56 82/77/56
f 73/65/57 72/68/57 79/78/57 80/79/57
f 71/67/58 42/80/58 78/81/58
f 85/82/59 77/70/59 84/75/59
f 76/69/60 75/71/60 82/77/60 83/74/60
f 74/66/61 73/65/61 80/79/61 81/76/61
f 72/68/62 71/67/62 78/81/62 79/78/62
f 80/79/63 79/78/63 87/83/63 88/84/63
f 78/81/64 42/85/64 86/86/64
f 85/87/65 84/75/65 92/88/65
f 83/74/66 82/77/66 90/89/66 91/90/66
f 81/76/67 80/79/67 88/84/67 89/91/67
f 79/78/68 78/81/68 86/86/68 87/83/68
f 84/75/69 83/74/69 91/90/69 92/88/69
f 82/77/70 81/76/70 89/91/70 90/89/70
f 85/92/71 92/88/71 99/93/71
f 91/90/72 90/89/72 97/94/72 98/95/72
f 89/91/73 88/84/73 95/96/73 96/97/73
f 87/83/74 86/86/74 93/98/74 94/99/74
f 92/88/75 91/90/75 98/95/75 99/93/75
f 90/89/76 89/91/76 96/97/76 97/94/76
f 88/84/77 87/83/77 94/99/77 95/96/77
f 86/86/78 42/100/78 93/98/78
f 94/101/79 93/102/79 100/103/79 101/104/79
f 99/105/80 98/106/80 105/107/80 106/108/80
f 97/109/81 96/110/81 103/111/81 104/112/81
f 95/113/82 94/101/82 101/104/82 102/114/82
f 93/102/83 42/115/83 100/103/83
f 85/116/84 99/105/84 106/108/84
f 98/106/85 97/109/85 104/112/85 105/107/85
f 96/110/86 95/113/86 102/114/86 103/111/86
f 106/108/87 105/107/87 112/117/87 113/118/87
f 104/112/88 103/111/88 110/119/88 111/120/88
f 102/114/89 101/104/89 108/121/89 109/122/89
f 100/103/90 42/123/90 107/124/90
f 85/125/91 106/108/91 113/118/91
f 105/107/92 104/112/92 111/120/92 112/117/92
f 103/111/93 102/114/93 109/122/93 110/119/93
f 101/104/94 100/103/94 107/124/94 108/121/94
f 107/124/95 42/126/95 114/19/95
f 85/127/96 113/118/96 34/23/96
f 112/117/97 111/120/97 117/26/97 118/25/97
f 110/119/98 109/122/98 33/15/98 116/29/98
f 108/121/99 107/124/99 114/19/99 115/16/99
f 113/118/100 112/117/100 118/25/100 34/23/100
f 111/120/101 110/119/101 116/29/101 117/26/101
f 109/122/102 108/121/102 115/16/102 33/15/102
f 127/15/7 209/16/7 130/17/7 131/18/7
f 208/19/8 136/20/8 129/21/8
f 179/22/9 128/23/9 135/24/9
f 212/25/10 211/26/10 133/27/10 134/28/10
f 210/29/11 127/15/11 131/18/11 132/30/11
f 209/16/12 208/19/12 129/21/12 130/17/12
f 128/23/13 212/25/13 134/28/13 135/24/13
f 211/26/14 210/29/14 132/30/14 133/27/14
f 134/28/15 133/27/15 141/31/15 142/32/15
f 132/30/16 131/18/16 139/33/16 140/34/16
f 130/17/17 129/21/17 137/35/17 138/36/17
f 135/24/18 134/28/18 142/32/18 143/37/18
f 133/27/19 132/30/19 140/34/19 141/31/19
f 131/18/20 130/17/20 138/36/20 139/33/20
f 129/21/21 136/9/21 137/35/21
f 179/38/22 135/24/22 143/37/22
f 143/37/23 142/32/23 149/39/23 150/40/23
f 141/31/24 140/34/24 147/41/24 148/42/24
f 139/33/25 138/36/25 145/43/25 146/44/25
f 137/35/26 136/45/26 144/46/26
f 179/47/27 143/37/27 150/40/27
f 142/32/28 141/31/28 148/42/28 149/39/28
f 140/34/29 139/33/29 146/44/29 147/41/29
f 138/36/30 137/35/30 144/46/30 145/43/30
f 148/42/31 147/41/31 154/48/31 155/49/31
f 146/44/32 145/43/32 152/50/32 153/51/32
f 144/46/33 136/52/33 151/53/33
f 179/54/34 150/40/34 157/55/34
f 149/39/35 148/42/35 155/49/35 156/56/35
f 147/41/36 146/44/36 153/51/36 154/48/36
f 145/43/37 144/46/37 151/53/37 152/50/37
f 150/40/38 149/39/38 156/56/38 157/55/38
f 179/57/39 157/55/39 164/58/39
f 156/56/40 155/49/40 162/59/40 163/60/40
f 154/48/41 153/51/41 160/61/41 161/62/41
f 152/50/42 151/53/42 158/63/42 159/64/42
f 157/55/43 156/56/43 163/60/43 164/58/43
f 155/49/44 154/48/44 161/62/44 162/59/44
f 153/51/45 152/50/45 159/64/45 160/61/45
f 151/53/46 136/10/46 158/63/46
f 161/62/47 160/61/47 167/65/47 168/66/47
f 159/64/48 158/63/48 165/67/48 166/68/48
f 164/58/49 163/60/49 170/69/49 171/70/49
f 162/59/50 161/62/50 168/66/50 169/71/50
f 160/61/51 159/64/51 166/68/51 167/65/51
f 158/63/52 136/72/52 165/67/52
f 179/73/53 164/58/53 171/70/53
f 163/60/54 162/59/54 169/71/54 170/69/54
f 171/70/55 170/69/55 177/74/55 178/75/55
f 169/71/56 168/66/56 175/76/56 176/77/56
f 167/65/57 166/68/57 173/78/57 174/79/57
f 165/67/58 136/80/58 172/81/58
f 179/82/59 171/70/59 178/75/59
f 170/69/60 169/71/60 176/77/60 177/74/60
f 168/66/61 167/65/61 174/79/61 175/76/61
f 166/68/62 165/67/62 172/81/62 173/78/62
f 174/79/63 173/78/63 181/83/63 182/84/63
f 172/81/64 136/85/64 180/86/64
f 179/87/65 178/75/65 186/88/65
f 177/74/66 176/77/66 184/89/66 185/90/66
f 175/76/67 174/79/67 182/84/67 183/91/67
f 173/78/68 172/81/68 180/86/68 181/83/68
f 178/75/69 177/74/69 185/90/69 186/88/69
f 176/77/70 175/76/70 183/91/70 184/89/70
f 179/92/71 186/88/71 193/93/71
f 185/90/72 184/89/72 191/94/72 192/95/72
f 183/91/73 182/84/73 189/96/73 190/97/73
f 181/83/74 180/86/74 187/98/74 188/99/74
f 186/88/75 185/90/75 192/95/75 193/93/75
f 184/89/76 183/91/76 190/97/76 191/94/76
f 182/84/77 181/83/77 188/99/77 189/96/77
f 180/86/78 136/100/78 187/98/78
f 188/101/79 187/102/79 194/103/79 195/104/79
f 193/105/80 192/106/80 199/107/80 200/108/80
f 191/109/81 190/110/81 197/111/81 198/112/81
f 189/113/82 188/101/82 195/104/82 196/114/82
f 187/102/83 136/115/83 194/103/83
f 179/116/84 193/105/84 200/108/84
f 192/106/85 191/109/85 198/112/85 199/107/85
f 190/110/86 189/113/86 196/114/86 197/111/86
f 200/108/87 199/107/87 206/117/87 207/118/87
f 198/112/88 197/111/88 204/119/88 205/120/88
f 196/114/89 195/104/89 202/121/89 203/122/89
f 194/103/90 136/123/90 201/124/90
f 179/125/91 200/108/91 207/118/91
f 199/107/92 198/112/92 205/120/92 206/117/92
f 197/111/93 196/114/93 203/122/93 204/119/93
f 195/104/94 194/103/94 201/124/94 202/121/94
f 201/124/95 136/126/95 208/19/95
f 179/127/96 207/118/96 128/23/96
f 206/117/97 205/120/97 211/26/97 212/25/97
f 204/119/98 203/122/98 127/15/98 210/29/98
f 202/121/99 201/124/99 208/19/99 209/16/99
f 207/118/100 206/117/100 212/25/100 128/23/100
f 205/120/101 204/119/101 210/29/101 211/26/101
f 203/122/102 202/121/102 209/16/102 127/15/102
f 221/1/1 222/2/1 224/3/1 223/4/1
f 223/4/2 224/3/2 228/5/2 227/6/2
f 227/6/3 228/5/3 226/7/3 225/8/3
f 225/8/4 226/7/4 222/9/4 221/10/4
f 223/11/5 227/6/5 225/8/5 221/12/5
f 228/5/6 224/13/6 222/14/6 226/7/6
f 229/1/1 230/2/1 232/3/1 231/4/1
f 231/4/2 232/3/2 236/5/2 235/6/2
f 235/6/3 236/5/3 234/7/3 233/8/3
f 233/8/4 234/7/4 230/9/4 229/10/4
f 231/11/5 235/6/5 233/8/5 229/12/5
f 236/5/6 232/13/6 230/14/6 234/7/6
usemtl Mat_TV_Body
f 237/1/1 238/2/1 240/3/1 239/4/1
f 239/4/2 240/3/2 244/5/2 243/6/2
f 243/6/3 244/5/3 242/7/3 241/8/3
f 241/8/4 242/7/4 238/9/4 237/10/4
f 239/11/5 243/6/5 241/8/5 237/12/5
f 244/5/6 240/13/6 238/14/6 242/7/6
f 245/1/1 246/2/1 248/3/1 247/4/1
f 247/4/2 248/3/2 252/5/2 251/6/2
f 251/6/3 252/5/3 250/7/3 249/8/3
f 249/8/4 250/7/4 246/9/4 245/10/4
f 247/11/5 251/6/5 249/8/5 245/12/5
f 252/5/6 248/13/6 246/14/6 250/7/6
f 253/1/1 254/2/1 256/3/1 255/4/1
f 255/4/2 256/3/2 260/5/2 259/6/2
f 259/6/3 260/5/3 258/7/3 257/8/3
f 257/8/4 258/7/4 254/9/4 253/10/4
f 255/11/5 259/6/5 257/8/5 253/12/5
f 260/5/6 256/13/6 254/14/6 258/7/6
usemtl Mat_TV_Screen
f 261/1/1 262/2/1 264/3/1 263/4/1
f 263/4/2 264/3/2 268/5/2 267/6/2
f 267/6/3 268/5/3 266/7/3 265/8/3
f 265/8/4 266/7/4 262/9/4 261/10/4
f 263/11/5 267/6/5 265/8/5 261/12/5
f 268/5/6 264/13/6 262/14/6 266/7/6
